<?xml version="1.0" encoding="utf-8" ?>
<svg baseProfile="full" height="2304" version="1.1" viewBox="0 0 1536 2304" width="1536" xmlns="http://www.w3.org/2000/svg" xmlns:ev="http://www.w3.org/2001/xml-events" xmlns:xlink="http://www.w3.org/1999/xlink"><defs /><path d="M 474,916 L 474,918 L 472,919 L 472,921 L 471,922 L 471,924 L 469,925 L 469,927 L 468,928 L 468,930 L 466,931 L 466,934 L 465,936 L 465,939 L 463,940 L 463,942 L 462,943 L 462,946 L 460,948 L 460,952 L 459,954 L 459,957 L 457,958 L 457,963 L 456,964 L 456,969 L 454,970 L 454,978 L 453,979 L 453,990 L 451,991 L 451,1020 L 453,1021 L 453,1033 L 454,1035 L 454,1041 L 456,1042 L 456,1048 L 457,1050 L 457,1054 L 459,1056 L 459,1059 L 460,1060 L 460,1062 L 462,1063 L 462,1066 L 463,1068 L 463,1069 L 465,1071 L 465,1074 L 466,1075 L 466,1077 L 468,1078 L 468,1080 L 469,1081 L 469,1083 L 472,1086 L 472,1087 L 475,1090 L 475,1092 L 478,1095 L 478,1096 L 480,1098 L 480,1099 L 486,1105 L 486,1107 L 510,1131 L 511,1131 L 517,1137 L 519,1137 L 523,1141 L 525,1141 L 528,1144 L 529,1144 L 534,1149 L 535,1149 L 538,1152 L 540,1152 L 543,1155 L 544,1155 L 546,1156 L 547,1156 L 550,1159 L 552,1159 L 553,1161 L 555,1161 L 558,1164 L 559,1164 L 561,1165 L 562,1165 L 564,1167 L 565,1167 L 567,1168 L 568,1168 L 571,1171 L 573,1171 L 574,1173 L 576,1173 L 577,1174 L 579,1174 L 580,1176 L 582,1176 L 583,1177 L 585,1177 L 586,1179 L 588,1179 L 589,1180 L 591,1180 L 592,1182 L 594,1182 L 595,1183 L 597,1183 L 598,1185 L 600,1185 L 601,1186 L 603,1186 L 604,1188 L 607,1188 L 609,1189 L 610,1189 L 612,1191 L 615,1191 L 616,1192 L 618,1192 L 619,1194 L 621,1194 L 622,1195 L 624,1195 L 625,1197 L 628,1197 L 630,1198 L 631,1198 L 633,1200 L 634,1200 L 636,1201 L 639,1201 L 640,1203 L 642,1203 L 643,1204 L 645,1204 L 646,1206 L 649,1206 L 651,1207 L 649,1209 L 645,1209 L 643,1207 L 636,1207 L 634,1206 L 628,1206 L 627,1204 L 622,1204 L 621,1203 L 615,1203 L 613,1201 L 609,1201 L 607,1200 L 604,1200 L 603,1198 L 598,1198 L 597,1197 L 594,1197 L 592,1195 L 588,1195 L 586,1194 L 583,1194 L 582,1192 L 579,1192 L 577,1191 L 574,1191 L 573,1189 L 570,1189 L 568,1188 L 567,1188 L 565,1186 L 562,1186 L 561,1185 L 558,1185 L 556,1183 L 553,1183 L 552,1182 L 550,1182 L 549,1180 L 546,1180 L 544,1179 L 543,1179 L 541,1177 L 538,1177 L 537,1176 L 535,1176 L 534,1174 L 532,1174 L 531,1173 L 528,1173 L 526,1171 L 525,1171 L 523,1170 L 522,1170 L 520,1168 L 519,1168 L 517,1167 L 516,1167 L 514,1165 L 513,1165 L 511,1164 L 510,1164 L 508,1162 L 507,1162 L 505,1161 L 504,1161 L 502,1159 L 501,1159 L 499,1158 L 498,1158 L 496,1156 L 495,1156 L 493,1155 L 492,1155 L 490,1153 L 489,1153 L 487,1152 L 486,1152 L 483,1149 L 481,1149 L 480,1147 L 478,1147 L 475,1144 L 474,1144 L 472,1143 L 471,1143 L 469,1141 L 468,1141 L 465,1138 L 463,1138 L 462,1137 L 460,1137 L 457,1134 L 456,1134 L 453,1131 L 451,1131 L 448,1128 L 447,1128 L 445,1126 L 445,1135 L 447,1137 L 447,1144 L 448,1146 L 448,1152 L 450,1153 L 450,1156 L 451,1158 L 451,1162 L 453,1164 L 453,1167 L 454,1168 L 454,1170 L 456,1171 L 456,1174 L 457,1176 L 457,1177 L 459,1179 L 459,1180 L 460,1182 L 460,1183 L 462,1185 L 462,1186 L 463,1188 L 463,1189 L 465,1191 L 465,1192 L 468,1195 L 468,1197 L 469,1198 L 469,1200 L 472,1203 L 472,1204 L 475,1207 L 475,1209 L 480,1213 L 480,1215 L 484,1219 L 484,1221 L 490,1227 L 490,1228 L 513,1251 L 514,1251 L 520,1257 L 522,1257 L 525,1260 L 526,1260 L 529,1263 L 531,1263 L 534,1266 L 535,1266 L 538,1269 L 540,1269 L 541,1270 L 543,1270 L 546,1273 L 547,1273 L 549,1275 L 550,1275 L 552,1276 L 553,1276 L 555,1278 L 556,1278 L 558,1279 L 559,1279 L 561,1281 L 562,1281 L 564,1282 L 565,1282 L 567,1284 L 568,1284 L 570,1285 L 571,1285 L 573,1287 L 576,1287 L 577,1288 L 579,1288 L 580,1290 L 583,1290 L 585,1291 L 586,1291 L 588,1293 L 591,1293 L 592,1294 L 595,1294 L 597,1296 L 600,1296 L 601,1297 L 604,1297 L 606,1299 L 607,1299 L 609,1300 L 607,1302 L 606,1302 L 601,1306 L 600,1306 L 597,1309 L 595,1309 L 592,1312 L 591,1312 L 588,1315 L 586,1315 L 585,1317 L 583,1317 L 580,1320 L 579,1320 L 577,1321 L 576,1321 L 574,1323 L 573,1323 L 571,1324 L 570,1324 L 567,1327 L 565,1327 L 564,1329 L 562,1329 L 561,1330 L 559,1330 L 558,1332 L 555,1332 L 553,1333 L 552,1333 L 550,1335 L 549,1335 L 547,1336 L 546,1336 L 544,1338 L 541,1338 L 540,1339 L 538,1339 L 537,1341 L 534,1341 L 532,1342 L 529,1342 L 528,1344 L 525,1344 L 523,1345 L 520,1345 L 519,1347 L 516,1347 L 514,1348 L 510,1348 L 508,1350 L 505,1350 L 504,1351 L 496,1351 L 495,1353 L 489,1353 L 493,1357 L 495,1357 L 498,1360 L 499,1360 L 502,1363 L 504,1363 L 507,1366 L 508,1366 L 511,1369 L 513,1369 L 516,1372 L 517,1372 L 519,1374 L 520,1374 L 523,1377 L 525,1377 L 526,1378 L 528,1378 L 529,1380 L 531,1380 L 532,1381 L 534,1381 L 535,1383 L 537,1383 L 540,1386 L 541,1386 L 543,1387 L 544,1387 L 546,1389 L 547,1389 L 549,1390 L 550,1390 L 552,1392 L 553,1392 L 555,1393 L 558,1393 L 559,1395 L 561,1395 L 562,1396 L 564,1396 L 565,1398 L 567,1398 L 568,1399 L 571,1399 L 573,1401 L 576,1401 L 577,1402 L 579,1402 L 580,1404 L 583,1404 L 585,1405 L 589,1405 L 591,1407 L 594,1407 L 595,1408 L 598,1408 L 600,1410 L 603,1410 L 604,1411 L 610,1411 L 612,1413 L 616,1413 L 618,1414 L 624,1414 L 625,1416 L 631,1416 L 633,1417 L 640,1417 L 642,1419 L 651,1419 L 652,1420 L 666,1420 L 667,1422 L 720,1422 L 721,1420 L 733,1420 L 735,1419 L 741,1419 L 742,1417 L 750,1417 L 751,1416 L 756,1416 L 757,1414 L 762,1414 L 763,1413 L 768,1413 L 769,1411 L 772,1411 L 774,1410 L 777,1410 L 778,1408 L 783,1408 L 784,1407 L 786,1407 L 787,1405 L 790,1405 L 792,1404 L 795,1404 L 796,1402 L 798,1402 L 799,1401 L 802,1401 L 804,1399 L 805,1399 L 807,1398 L 810,1398 L 811,1396 L 813,1396 L 814,1395 L 816,1395 L 817,1393 L 819,1393 L 820,1392 L 822,1392 L 823,1390 L 825,1390 L 826,1389 L 828,1389 L 829,1387 L 831,1387 L 832,1386 L 834,1386 L 837,1383 L 838,1383 L 840,1381 L 841,1381 L 844,1378 L 846,1378 L 847,1377 L 849,1377 L 852,1374 L 853,1374 L 856,1371 L 858,1371 L 861,1368 L 862,1368 L 865,1365 L 867,1365 L 873,1359 L 874,1359 L 879,1354 L 880,1354 L 891,1344 L 892,1344 L 912,1324 L 912,1323 L 921,1314 L 921,1312 L 924,1309 L 924,1308 L 928,1303 L 928,1302 L 931,1299 L 931,1297 L 934,1294 L 934,1293 L 937,1290 L 937,1288 L 939,1287 L 939,1285 L 942,1282 L 942,1281 L 943,1279 L 943,1278 L 945,1276 L 945,1275 L 948,1272 L 948,1270 L 949,1269 L 949,1267 L 951,1266 L 951,1264 L 952,1263 L 952,1261 L 954,1260 L 954,1257 L 955,1255 L 955,1254 L 957,1252 L 957,1251 L 958,1249 L 958,1248 L 960,1246 L 960,1243 L 961,1242 L 961,1240 L 963,1239 L 963,1236 L 964,1234 L 964,1231 L 966,1230 L 966,1227 L 967,1225 L 967,1221 L 969,1219 L 969,1215 L 970,1213 L 970,1209 L 972,1207 L 972,1200 L 973,1198 L 973,1192 L 975,1191 L 975,1185 L 976,1183 L 976,1176 L 978,1174 L 978,1159 L 979,1158 L 979,1077 L 982,1074 L 984,1074 L 987,1071 L 988,1071 L 993,1066 L 994,1066 L 1000,1060 L 1002,1060 L 1006,1056 L 1008,1056 L 1014,1050 L 1015,1050 L 1018,1047 L 1018,1045 L 1020,1044 L 1020,1038 L 1015,1033 L 1014,1033 L 1011,1030 L 1009,1030 L 1008,1029 L 1006,1029 L 1005,1027 L 1003,1027 L 1002,1026 L 1000,1026 L 999,1024 L 996,1024 L 993,1021 L 990,1021 L 988,1020 L 987,1020 L 985,1018 L 984,1018 L 982,1017 L 979,1017 L 978,1015 L 978,1014 L 976,1012 L 976,1011 L 975,1009 L 975,1006 L 973,1005 L 973,1003 L 972,1002 L 972,999 L 970,997 L 970,996 L 969,994 L 969,993 L 966,990 L 966,988 L 964,987 L 964,985 L 963,984 L 963,982 L 960,979 L 960,978 L 957,975 L 957,973 L 951,967 L 951,966 L 934,949 L 933,949 L 928,945 L 927,945 L 924,942 L 922,942 L 919,939 L 918,939 L 916,937 L 915,937 L 912,934 L 909,934 L 907,933 L 906,933 L 904,931 L 903,931 L 901,930 L 898,930 L 897,928 L 894,928 L 892,927 L 888,927 L 886,925 L 882,925 L 880,924 L 871,924 L 870,922 L 843,922 L 841,924 L 832,924 L 831,925 L 825,925 L 823,927 L 820,927 L 819,928 L 814,928 L 813,930 L 811,930 L 810,931 L 808,931 L 807,933 L 804,933 L 802,934 L 801,934 L 799,936 L 798,936 L 796,937 L 795,937 L 792,940 L 790,940 L 787,943 L 786,943 L 783,946 L 781,946 L 772,955 L 771,955 L 765,961 L 765,963 L 756,972 L 756,973 L 751,978 L 751,979 L 748,982 L 748,984 L 745,987 L 745,988 L 744,990 L 744,991 L 742,993 L 742,994 L 739,997 L 739,999 L 738,1000 L 738,1002 L 736,1003 L 736,1006 L 735,1008 L 735,1009 L 733,1011 L 733,1014 L 732,1015 L 732,1018 L 730,1020 L 730,1024 L 729,1026 L 729,1030 L 727,1032 L 727,1039 L 726,1041 L 726,1083 L 727,1084 L 727,1092 L 729,1093 L 730,1093 L 733,1096 L 735,1096 L 738,1099 L 739,1099 L 742,1102 L 744,1102 L 745,1104 L 747,1104 L 751,1108 L 753,1108 L 756,1111 L 757,1111 L 762,1116 L 763,1116 L 771,1123 L 772,1123 L 790,1141 L 790,1143 L 796,1149 L 796,1150 L 801,1155 L 801,1156 L 804,1159 L 804,1161 L 805,1162 L 805,1164 L 808,1167 L 808,1168 L 810,1170 L 810,1171 L 811,1173 L 811,1174 L 813,1176 L 813,1177 L 814,1179 L 814,1182 L 816,1183 L 816,1186 L 817,1188 L 817,1189 L 819,1191 L 819,1195 L 820,1197 L 820,1203 L 822,1204 L 822,1212 L 823,1213 L 823,1245 L 822,1246 L 822,1255 L 820,1257 L 820,1261 L 819,1263 L 819,1267 L 817,1269 L 817,1273 L 816,1275 L 816,1276 L 814,1278 L 814,1281 L 813,1282 L 813,1284 L 811,1285 L 811,1288 L 810,1290 L 810,1291 L 808,1293 L 808,1294 L 807,1296 L 807,1297 L 805,1299 L 805,1300 L 802,1303 L 802,1305 L 799,1308 L 799,1309 L 796,1312 L 796,1314 L 793,1317 L 793,1318 L 786,1326 L 786,1327 L 772,1341 L 771,1341 L 765,1347 L 763,1347 L 762,1345 L 762,1344 L 766,1339 L 766,1338 L 771,1333 L 771,1332 L 775,1327 L 775,1326 L 777,1324 L 777,1323 L 780,1320 L 780,1318 L 781,1317 L 781,1315 L 784,1312 L 784,1311 L 786,1309 L 786,1308 L 787,1306 L 787,1305 L 789,1303 L 789,1302 L 790,1300 L 790,1299 L 792,1297 L 792,1294 L 793,1293 L 793,1291 L 795,1290 L 795,1288 L 796,1287 L 796,1284 L 798,1282 L 798,1278 L 799,1276 L 799,1273 L 801,1272 L 801,1266 L 802,1264 L 802,1258 L 804,1257 L 804,1219 L 802,1218 L 802,1212 L 801,1210 L 801,1206 L 799,1204 L 799,1201 L 798,1200 L 798,1197 L 796,1195 L 796,1194 L 795,1192 L 795,1191 L 793,1189 L 793,1188 L 792,1186 L 792,1185 L 790,1183 L 790,1182 L 789,1180 L 789,1179 L 786,1176 L 786,1174 L 781,1170 L 781,1168 L 777,1164 L 777,1162 L 751,1137 L 750,1137 L 745,1132 L 744,1132 L 738,1126 L 736,1126 L 733,1123 L 732,1123 L 727,1119 L 726,1119 L 723,1116 L 721,1116 L 718,1113 L 717,1113 L 712,1108 L 711,1108 L 709,1107 L 708,1107 L 705,1104 L 703,1104 L 702,1102 L 700,1102 L 697,1099 L 696,1099 L 694,1098 L 693,1098 L 690,1095 L 688,1095 L 687,1093 L 685,1093 L 682,1090 L 681,1090 L 679,1089 L 678,1089 L 675,1086 L 673,1086 L 672,1084 L 670,1084 L 669,1083 L 667,1083 L 666,1081 L 664,1081 L 663,1080 L 661,1080 L 658,1077 L 657,1077 L 655,1075 L 654,1075 L 651,1072 L 649,1072 L 646,1069 L 645,1069 L 643,1068 L 642,1068 L 639,1065 L 637,1065 L 634,1062 L 633,1062 L 630,1059 L 628,1059 L 625,1056 L 624,1056 L 621,1053 L 619,1053 L 615,1048 L 613,1048 L 610,1045 L 609,1045 L 604,1041 L 603,1041 L 600,1038 L 598,1038 L 594,1033 L 592,1033 L 588,1029 L 586,1029 L 580,1023 L 579,1023 L 571,1015 L 570,1015 L 564,1009 L 562,1009 L 546,993 L 544,993 L 513,961 L 513,960 L 496,943 L 496,942 L 486,931 L 486,930 L 478,922 L 478,921 Z" fill="#1DA1F2" /></svg>