<?xml version="1.0" encoding="utf-8" ?>
<svg baseProfile="full" height="1536" version="1.1" width="1024" xmlns="http://www.w3.org/2000/svg" xmlns:ev="http://www.w3.org/2001/xml-events" xmlns:xlink="http://www.w3.org/1999/xlink"><defs /><path d="M 316,611 L 316,612 L 315,613 L 315,614 L 314,615 L 314,616 L 313,617 L 313,618 L 312,619 L 312,620 L 311,621 L 311,623 L 310,624 L 310,626 L 309,627 L 309,628 L 308,629 L 308,631 L 307,632 L 307,635 L 306,636 L 306,638 L 305,639 L 305,642 L 304,643 L 304,646 L 303,647 L 303,652 L 302,653 L 302,660 L 301,661 L 301,680 L 302,681 L 302,689 L 303,690 L 303,694 L 304,695 L 304,699 L 305,700 L 305,703 L 306,704 L 306,706 L 307,707 L 307,708 L 308,709 L 308,711 L 309,712 L 309,713 L 310,714 L 310,716 L 311,717 L 311,718 L 312,719 L 312,720 L 313,721 L 313,722 L 315,724 L 315,725 L 317,727 L 317,728 L 319,730 L 319,731 L 320,732 L 320,733 L 324,737 L 324,738 L 340,754 L 341,754 L 345,758 L 346,758 L 349,761 L 350,761 L 352,763 L 353,763 L 356,766 L 357,766 L 359,768 L 360,768 L 362,770 L 363,770 L 364,771 L 365,771 L 367,773 L 368,773 L 369,774 L 370,774 L 372,776 L 373,776 L 374,777 L 375,777 L 376,778 L 377,778 L 378,779 L 379,779 L 381,781 L 382,781 L 383,782 L 384,782 L 385,783 L 386,783 L 387,784 L 388,784 L 389,785 L 390,785 L 391,786 L 392,786 L 393,787 L 394,787 L 395,788 L 396,788 L 397,789 L 398,789 L 399,790 L 400,790 L 401,791 L 402,791 L 403,792 L 405,792 L 406,793 L 407,793 L 408,794 L 410,794 L 411,795 L 412,795 L 413,796 L 414,796 L 415,797 L 416,797 L 417,798 L 419,798 L 420,799 L 421,799 L 422,800 L 423,800 L 424,801 L 426,801 L 427,802 L 428,802 L 429,803 L 430,803 L 431,804 L 433,804 L 434,805 L 433,806 L 430,806 L 429,805 L 424,805 L 423,804 L 419,804 L 418,803 L 415,803 L 414,802 L 410,802 L 409,801 L 406,801 L 405,800 L 403,800 L 402,799 L 399,799 L 398,798 L 396,798 L 395,797 L 392,797 L 391,796 L 389,796 L 388,795 L 386,795 L 385,794 L 383,794 L 382,793 L 380,793 L 379,792 L 378,792 L 377,791 L 375,791 L 374,790 L 372,790 L 371,789 L 369,789 L 368,788 L 367,788 L 366,787 L 364,787 L 363,786 L 362,786 L 361,785 L 359,785 L 358,784 L 357,784 L 356,783 L 355,783 L 354,782 L 352,782 L 351,781 L 350,781 L 349,780 L 348,780 L 347,779 L 346,779 L 345,778 L 344,778 L 343,777 L 342,777 L 341,776 L 340,776 L 339,775 L 338,775 L 337,774 L 336,774 L 335,773 L 334,773 L 333,772 L 332,772 L 331,771 L 330,771 L 329,770 L 328,770 L 327,769 L 326,769 L 325,768 L 324,768 L 322,766 L 321,766 L 320,765 L 319,765 L 317,763 L 316,763 L 315,762 L 314,762 L 313,761 L 312,761 L 310,759 L 309,759 L 308,758 L 307,758 L 305,756 L 304,756 L 302,754 L 301,754 L 299,752 L 298,752 L 297,751 L 297,757 L 298,758 L 298,763 L 299,764 L 299,768 L 300,769 L 300,771 L 301,772 L 301,775 L 302,776 L 302,778 L 303,779 L 303,780 L 304,781 L 304,783 L 305,784 L 305,785 L 306,786 L 306,787 L 307,788 L 307,789 L 308,790 L 308,791 L 309,792 L 309,793 L 310,794 L 310,795 L 312,797 L 312,798 L 313,799 L 313,800 L 315,802 L 315,803 L 317,805 L 317,806 L 320,809 L 320,810 L 323,813 L 323,814 L 327,818 L 327,819 L 342,834 L 343,834 L 347,838 L 348,838 L 350,840 L 351,840 L 353,842 L 354,842 L 356,844 L 357,844 L 359,846 L 360,846 L 361,847 L 362,847 L 364,849 L 365,849 L 366,850 L 367,850 L 368,851 L 369,851 L 370,852 L 371,852 L 372,853 L 373,853 L 374,854 L 375,854 L 376,855 L 377,855 L 378,856 L 379,856 L 380,857 L 381,857 L 382,858 L 384,858 L 385,859 L 386,859 L 387,860 L 389,860 L 390,861 L 391,861 L 392,862 L 394,862 L 395,863 L 397,863 L 398,864 L 400,864 L 401,865 L 403,865 L 404,866 L 405,866 L 406,867 L 405,868 L 404,868 L 401,871 L 400,871 L 398,873 L 397,873 L 395,875 L 394,875 L 392,877 L 391,877 L 390,878 L 389,878 L 387,880 L 386,880 L 385,881 L 384,881 L 383,882 L 382,882 L 381,883 L 380,883 L 378,885 L 377,885 L 376,886 L 375,886 L 374,887 L 373,887 L 372,888 L 370,888 L 369,889 L 368,889 L 367,890 L 366,890 L 365,891 L 364,891 L 363,892 L 361,892 L 360,893 L 359,893 L 358,894 L 356,894 L 355,895 L 353,895 L 352,896 L 350,896 L 349,897 L 347,897 L 346,898 L 344,898 L 343,899 L 340,899 L 339,900 L 337,900 L 336,901 L 331,901 L 330,902 L 326,902 L 329,905 L 330,905 L 332,907 L 333,907 L 335,909 L 336,909 L 338,911 L 339,911 L 341,913 L 342,913 L 344,915 L 345,915 L 346,916 L 347,916 L 349,918 L 350,918 L 351,919 L 352,919 L 353,920 L 354,920 L 355,921 L 356,921 L 357,922 L 358,922 L 360,924 L 361,924 L 362,925 L 363,925 L 364,926 L 365,926 L 366,927 L 367,927 L 368,928 L 369,928 L 370,929 L 372,929 L 373,930 L 374,930 L 375,931 L 376,931 L 377,932 L 378,932 L 379,933 L 381,933 L 382,934 L 384,934 L 385,935 L 386,935 L 387,936 L 389,936 L 390,937 L 393,937 L 394,938 L 396,938 L 397,939 L 399,939 L 400,940 L 402,940 L 403,941 L 407,941 L 408,942 L 411,942 L 412,943 L 416,943 L 417,944 L 421,944 L 422,945 L 427,945 L 428,946 L 434,946 L 435,947 L 444,947 L 445,948 L 480,948 L 481,947 L 489,947 L 490,946 L 494,946 L 495,945 L 500,945 L 501,944 L 504,944 L 505,943 L 508,943 L 509,942 L 512,942 L 513,941 L 515,941 L 516,940 L 518,940 L 519,939 L 522,939 L 523,938 L 524,938 L 525,937 L 527,937 L 528,936 L 530,936 L 531,935 L 532,935 L 533,934 L 535,934 L 536,933 L 537,933 L 538,932 L 540,932 L 541,931 L 542,931 L 543,930 L 544,930 L 545,929 L 546,929 L 547,928 L 548,928 L 549,927 L 550,927 L 551,926 L 552,926 L 553,925 L 554,925 L 555,924 L 556,924 L 558,922 L 559,922 L 560,921 L 561,921 L 563,919 L 564,919 L 565,918 L 566,918 L 568,916 L 569,916 L 571,914 L 572,914 L 574,912 L 575,912 L 577,910 L 578,910 L 582,906 L 583,906 L 586,903 L 587,903 L 594,896 L 595,896 L 608,883 L 608,882 L 614,876 L 614,875 L 616,873 L 616,872 L 619,869 L 619,868 L 621,866 L 621,865 L 623,863 L 623,862 L 625,860 L 625,859 L 626,858 L 626,857 L 628,855 L 628,854 L 629,853 L 629,852 L 630,851 L 630,850 L 632,848 L 632,847 L 633,846 L 633,845 L 634,844 L 634,843 L 635,842 L 635,841 L 636,840 L 636,838 L 637,837 L 637,836 L 638,835 L 638,834 L 639,833 L 639,832 L 640,831 L 640,829 L 641,828 L 641,827 L 642,826 L 642,824 L 643,823 L 643,821 L 644,820 L 644,818 L 645,817 L 645,814 L 646,813 L 646,810 L 647,809 L 647,806 L 648,805 L 648,800 L 649,799 L 649,795 L 650,794 L 650,790 L 651,789 L 651,784 L 652,783 L 652,773 L 653,772 L 653,718 L 655,716 L 656,716 L 658,714 L 659,714 L 662,711 L 663,711 L 667,707 L 668,707 L 671,704 L 672,704 L 676,700 L 677,700 L 679,698 L 679,697 L 680,696 L 680,692 L 677,689 L 676,689 L 674,687 L 673,687 L 672,686 L 671,686 L 670,685 L 669,685 L 668,684 L 667,684 L 666,683 L 664,683 L 662,681 L 660,681 L 659,680 L 658,680 L 657,679 L 656,679 L 655,678 L 653,678 L 652,677 L 652,676 L 651,675 L 651,674 L 650,673 L 650,671 L 649,670 L 649,669 L 648,668 L 648,666 L 647,665 L 647,664 L 646,663 L 646,662 L 644,660 L 644,659 L 643,658 L 643,657 L 642,656 L 642,655 L 640,653 L 640,652 L 638,650 L 638,649 L 634,645 L 634,644 L 623,633 L 622,633 L 619,630 L 618,630 L 616,628 L 615,628 L 613,626 L 612,626 L 611,625 L 610,625 L 608,623 L 606,623 L 605,622 L 604,622 L 603,621 L 602,621 L 601,620 L 599,620 L 598,619 L 596,619 L 595,618 L 592,618 L 591,617 L 588,617 L 587,616 L 581,616 L 580,615 L 562,615 L 561,616 L 555,616 L 554,617 L 550,617 L 549,618 L 547,618 L 546,619 L 543,619 L 542,620 L 541,620 L 540,621 L 539,621 L 538,622 L 536,622 L 535,623 L 534,623 L 533,624 L 532,624 L 531,625 L 530,625 L 528,627 L 527,627 L 525,629 L 524,629 L 522,631 L 521,631 L 515,637 L 514,637 L 510,641 L 510,642 L 504,648 L 504,649 L 501,652 L 501,653 L 499,655 L 499,656 L 497,658 L 497,659 L 496,660 L 496,661 L 495,662 L 495,663 L 493,665 L 493,666 L 492,667 L 492,668 L 491,669 L 491,671 L 490,672 L 490,673 L 489,674 L 489,676 L 488,677 L 488,679 L 487,680 L 487,683 L 486,684 L 486,687 L 485,688 L 485,693 L 484,694 L 484,722 L 485,723 L 485,728 L 486,729 L 487,729 L 489,731 L 490,731 L 492,733 L 493,733 L 495,735 L 496,735 L 497,736 L 498,736 L 501,739 L 502,739 L 504,741 L 505,741 L 508,744 L 509,744 L 514,749 L 515,749 L 527,761 L 527,762 L 531,766 L 531,767 L 534,770 L 534,771 L 536,773 L 536,774 L 537,775 L 537,776 L 539,778 L 539,779 L 540,780 L 540,781 L 541,782 L 541,783 L 542,784 L 542,785 L 543,786 L 543,788 L 544,789 L 544,791 L 545,792 L 545,793 L 546,794 L 546,797 L 547,798 L 547,802 L 548,803 L 548,808 L 549,809 L 549,830 L 548,831 L 548,837 L 547,838 L 547,841 L 546,842 L 546,845 L 545,846 L 545,849 L 544,850 L 544,851 L 543,852 L 543,854 L 542,855 L 542,856 L 541,857 L 541,859 L 540,860 L 540,861 L 539,862 L 539,863 L 538,864 L 538,865 L 537,866 L 537,867 L 535,869 L 535,870 L 533,872 L 533,873 L 531,875 L 531,876 L 529,878 L 529,879 L 524,884 L 524,885 L 515,894 L 514,894 L 510,898 L 509,898 L 508,897 L 508,896 L 511,893 L 511,892 L 514,889 L 514,888 L 517,885 L 517,884 L 518,883 L 518,882 L 520,880 L 520,879 L 521,878 L 521,877 L 523,875 L 523,874 L 524,873 L 524,872 L 525,871 L 525,870 L 526,869 L 526,868 L 527,867 L 527,866 L 528,865 L 528,863 L 529,862 L 529,861 L 530,860 L 530,859 L 531,858 L 531,856 L 532,855 L 532,852 L 533,851 L 533,849 L 534,848 L 534,844 L 535,843 L 535,839 L 536,838 L 536,813 L 535,812 L 535,808 L 534,807 L 534,804 L 533,803 L 533,801 L 532,800 L 532,798 L 531,797 L 531,796 L 530,795 L 530,794 L 529,793 L 529,792 L 528,791 L 528,790 L 527,789 L 527,788 L 526,787 L 526,786 L 524,784 L 524,783 L 521,780 L 521,779 L 518,776 L 518,775 L 501,758 L 500,758 L 497,755 L 496,755 L 492,751 L 491,751 L 489,749 L 488,749 L 485,746 L 484,746 L 482,744 L 481,744 L 479,742 L 478,742 L 475,739 L 474,739 L 473,738 L 472,738 L 470,736 L 469,736 L 468,735 L 467,735 L 465,733 L 464,733 L 463,732 L 462,732 L 460,730 L 459,730 L 458,729 L 457,729 L 455,727 L 454,727 L 453,726 L 452,726 L 450,724 L 449,724 L 448,723 L 447,723 L 446,722 L 445,722 L 444,721 L 443,721 L 442,720 L 441,720 L 439,718 L 438,718 L 437,717 L 436,717 L 434,715 L 433,715 L 431,713 L 430,713 L 429,712 L 428,712 L 426,710 L 425,710 L 423,708 L 422,708 L 420,706 L 419,706 L 417,704 L 416,704 L 414,702 L 413,702 L 410,699 L 409,699 L 407,697 L 406,697 L 403,694 L 402,694 L 400,692 L 399,692 L 396,689 L 395,689 L 392,686 L 391,686 L 387,682 L 386,682 L 381,677 L 380,677 L 376,673 L 375,673 L 364,662 L 363,662 L 342,641 L 342,640 L 331,629 L 331,628 L 324,621 L 324,620 L 319,615 L 319,614 Z" fill="#1DA1F2" /></svg>